{"title":"Pyaar Impossible 2010 720p BluRay nHD x264 (NhaNc3) - Hindi","uid":8438700,"size":2346837942,"categoryP":"video","categoryS":"hd___movies","magnet":"?xt=urn:btih:6d9c97e3a508065975915fcf98a5042d163f7118&amp;dn=Pyaar+Impossible+2010+720p+BluRay+nHD+x264+%28NhaNc3%29+-+Hindi&amp;tr=udp%3A%2F%2Ftracker.openbittorrent.com%3A80&amp;tr=udp%3A%2F%2Fopen.demonii.com%3A1337&amp;tr=udp%3A%2F%2Ftracker.coppersurfer.tk%3A6969&amp;tr=udp%3A%2F%2Fexodus.desync.com%3A6969","seeders":0,"leechers":0,"uploader":"SJonam","files":1,"time":1367706997,"description":" &lt;a href=&quot;http://desibbrg.org/images/85214856223899147872.gif&quot; rel=&quot;nofollow&quot; target=&quot;_NEW&quot;&gt;http://desibbrg.org/images/85214856223899147872.gif&lt;/a&gt; &lt;a href=&quot;\nhttp://desibbrg.org/images/05073095566363736863.jpg&quot; rel=&quot;nofollow&quot; target=&quot;_NEW&quot;&gt;\nhttp://desibbrg.org/images/05073095566363736863.jpg&lt;/a&gt; &lt;a href=&quot;\nhttp://desibbrg.org/images/77275656656128961081.jpg&quot; rel=&quot;nofollow&quot; target=&quot;_NEW&quot;&gt;\nhttp://desibbrg.org/images/77275656656128961081.jpg&lt;/a&gt; &lt;a href=&quot;\nhttp://desibbrg.org/images/52086630661474003694.jpg&quot; rel=&quot;nofollow&quot; target=&quot;_NEW&quot;&gt;\nhttp://desibbrg.org/images/52086630661474003694.jpg&lt;/a&gt; &lt;a href=&quot;\nhttp://desibbrg.org/images/77057040846302654367.jpg&quot; rel=&quot;nofollow&quot; target=&quot;_NEW&quot;&gt;\nhttp://desibbrg.org/images/77057040846302654367.jpg&lt;/a&gt;\n &lt;a href=&quot;\nhttp://i1306.photobucket.com/albums/s570/zyx55e/oie_11162011MOJeDGQI_zpsc25b2b81.gif&quot; rel=&quot;nofollow&quot; target=&quot;_NEW&quot;&gt;\nhttp://i1306.photobucket.com/albums/s570/zyx55e/oie_11162011MOJeDGQI_zpsc25b2b81.gif&lt;/a&gt;\nVideo\nID : 1\nFormat : AVC\nFormat/Info : Advanced Video Codec\nFormat profile : &lt;a class=&quot;__cf_email__&quot; href=&quot;/cdn-cgi/l/email-protection&quot; data-cfemail=&quot;a2eacbc5cae2ee968c93&quot;&gt;[email&amp;#160;protected]&lt;/a&gt;&lt;script data-cfhash='f9e31' type=&quot;text/javascript&quot;&gt;\n/* &lt;![CDATA[ */!function(){try{var t=&quot;currentScript&quot;in document?document.currentScript:function(){for(var t=document.getElementsByTagName(&quot;script&quot;),e=t.length;e--;)if(t[e].getAttribute(&quot;data-cfhash&quot;))return t[e]}();if(t&amp;&amp;t.previousSibling){var e,r,n,i,c=t.previousSibling,a=c.getAttribute(&quot;data-cfemail&quot;);if(a){for(e=&quot;&quot;,r=parseInt(a.substr(0,2),16),n=2;a.length-n;n+=2)i=parseInt(a.substr(n,2),16)^r,e+=String.fromCharCode(i);e=document.createTextNode(e),c.parentNode.replaceChild(e,c)}t.parentNode.removeChild(t);}}catch(u){}}()/* ]]&gt; */&lt;/script&gt;\nFormat settings, CABAC : Yes\nFormat settings, ReFrames : 8 frames\nCodec ID : V_MPEG4/ISO/AVC\nDuration : 2h 20mn\nBit rate : 1 997 Kbps\nWidth : 1 280 pixels\nHeight : 544 pixels\nDisplay aspect ratio : 2.35:1\nFrame rate : 24.000 fps\nColor space : YUV\nChroma subsampling : 4:2:0\nBit depth : 8 bits\nScan type : Progressive\nBits/(Pixel*Frame) : 0.119\nStream size : 1.92 GiB (88%)\nWriting library : x264 core 98 r1649 20cbe10\nLanguage : English\nDefault : No\nForced : No\n\nAudio\nID : 2\nFormat : AC-3\nFormat/Info : Audio Coding 3\nMode extension : CM (complete main)\nCodec ID : A_AC3\nDuration : 2h 20mn\nBit rate mode : Constant\nBit rate : 224 Kbps\nChannel(s) : 6 channels\nChannel positions : Front: L C R, Side: L R, LFE\nSampling rate : 48.0 KHz\nBit depth : 16 bits\nCompression mode : Lossy\nStream size : 226 MiB (10%)\nLanguage : Hindi\nDefault : Yes\nForced : No\n\nRipper : NhaNc3\n\nSeeding 24x7... Extreme Seeding...\n\n &lt;a href=&quot;\nhttp://i1306.photobucket.com/albums/s570/zyx55e/oie_1117625zVIGKvnK_zpsc8b6e055.gif&quot; rel=&quot;nofollow&quot; target=&quot;_NEW&quot;&gt;\nhttp://i1306.photobucket.com/albums/s570/zyx55e/oie_1117625zVIGKvnK_zpsc8b6e055.gif&lt;/a&gt;","torrent":{"xt":"urn:btih:6d9c97e3a508065975915fcf98a5042d163f7118","amp;dn":"Pyaar+Impossible+2010+720p+BluRay+nHD+x264+%28NhaNc3%29+-+Hindi","amp;tr":["udp%3A%2F%2Ftracker.openbittorrent.com%3A80","udp%3A%2F%2Fopen.demonii.com%3A1337","udp%3A%2F%2Ftracker.coppersurfer.tk%3A6969","udp%3A%2F%2Fexodus.desync.com%3A6969"],"infoHash":"6d9c97e3a508065975915fcf98a5042d163f7118","infoHashBuffer":{"type":"Buffer","data":[109,156,151,227,165,8,6,89,117,145,95,207,152,165,4,45,22,63,113,24]},"announce":[],"urlList":[]}}